<?xml version="1.0" encoding="UTF-8"?>
<svg width="967px" height="936px" viewBox="0 0 967 936" version="1.1" xmlns="http://www.w3.org/2000/svg" xmlns:xlink="http://www.w3.org/1999/xlink">
    <!-- Generator: Sketch 63 (92445) - https://sketch.com -->
    <title>Slice 1</title>
    <desc>Created with Sketch.</desc>
    <g id="Page-1" stroke="none" stroke-width="1" fill="none" fill-rule="evenodd">
        <g id="Group" transform="translate(0.000000, 37.000000)" fill-rule="nonzero">
            <path d="M77.921875,768.578125 L483.125,768.578125 L483.125,740.128004 L77.921875,740.128004 C52.101562,740.128004 31.167969,721.024608 31.167969,697.461733 L31.167969,71.6873877 C31.167969,48.1173835 52.101562,29.0211174 77.921875,29.0211174 L763.648438,29.0211174 C789.480469,29.0211174 810.402344,48.1173835 810.402344,71.6873877 L810.402344,398.794274 L841.578125,398.794274 L841.578125,71.6873877 C841.527344,32.4325651 806.667969,0.624466281 763.648438,0.578125 L77.921875,0.578125 C34.914062,0.624466281 0.0546875,32.4325651 0,71.6873877 L0,697.461733 C0.0546875,736.716555 34.914062,768.524654 77.921875,768.578125 Z" id="Path" fill="#2D3748"></path>
            <polygon id="Path" fill="#718096" points="110 150.875 731 150.875 731 181.875 110 181.875"></polygon>
            <polygon id="Path" fill="#F4AB45" points="279.058594 213.390625 388.148438 213.390625 388.148438 244.390625 279.058594 244.390625"></polygon>
            <polygon id="Path" fill="#00BFB3" points="419.058594 213.390625 637.238281 213.390625 637.238281 244.390625 419.058594 244.390625"></polygon>
            <polygon id="Path" fill="#718096" points="113.058594 337.390625 377.992188 337.390625 377.992188 368.390625 113.058594 368.390625"></polygon>
            <polygon id="Path" fill="#00BFB3" points="113.058594 399.734375 222.148438 399.734375 222.148438 430.734375 113.058594 430.734375"></polygon>
            <polygon id="Path" fill="#F4AB45" points="253.320313 399.734375 377.992188 399.734375 377.992188 430.734375 253.320313 430.734375"></polygon>
            <polygon id="Path" fill="#BF69A6" points="409.164063 337.390625 471.5 337.390625 471.5 368.390625 409.164063 368.390625"></polygon>
            <polygon id="Path-Copy" fill="#BF69A6" points="113.058594 213.390625 248.058594 213.390625 248.058594 244.390625 113.058594 244.390625"></polygon>
            <polygon id="Path" fill="#718096" points="113.058594 524.410156 458.058594 524.410156 458.058594 555.410156 113.058594 555.410156"></polygon>
            <polygon id="Path" fill="#00BFB3" points="113.058594 586.749999 222.148438 586.749999 222.148438 617.749999 113.058594 617.749999"></polygon>
            <polygon id="Path" fill="#BF69A6" points="253.058594 586.390625 315.394531 586.390625 315.394531 617.390625 253.058594 617.390625"></polygon>
            <polygon id="Path-Copy-2" fill="#7F9CF5" points="346.058594 586.390625 458.058594 586.390625 458.058594 617.390625 346.058594 617.390625"></polygon>
            <polygon id="Path-Copy-3" fill="#7F9CF5" points="409 400.875 521 400.875 521 431.875 409 431.875"></polygon>
            <path d="M732.484375,862.085938 C861.597656,862.085938 966.25,757.414062 966.25,628.3125 C966.25,499.199219 861.597656,394.539062 732.484375,394.539062 C603.371094,394.539062 498.710938,499.199219 498.710938,628.3125 C498.863281,757.355469 603.433594,861.929688 732.484375,862.085938 Z M732.484375,425.710938 C844.371094,425.710938 935.085938,516.417969 935.085938,628.3125 C935.085938,740.207031 844.371094,830.910156 732.484375,830.910156 C620.585938,830.910156 529.875,740.207031 529.875,628.3125 C530.007812,516.472656 620.636719,425.835938 732.484375,425.710938 Z" id="Shape" fill="#68D391"></path>
            <path d="M637.417969,636.925781 L609.519531,650.855469 L640.691406,713.195312 C642.925781,717.679688 647.191406,720.816406 652.140625,721.617188 C652.945312,721.742188 653.75,721.808594 654.558594,721.820312 C658.6875,721.820312 662.652344,720.175781 665.582031,717.253906 L852.589844,530.238281 L830.558594,508.199219 L658.824219,679.925781 L637.417969,636.925781 Z" id="Path" fill="#68D391"></path>
        </g>
        <ellipse id="Oval-Copy" fill="#2D3748" cx="127" cy="121.375" rx="17" ry="17.5"></ellipse>
        <ellipse id="Oval-Copy-2" fill="#2D3748" cx="182" cy="121.375" rx="17" ry="17.5"></ellipse>
        <ellipse id="Oval-Copy-3" fill="#2D3748" cx="237" cy="121.375" rx="17" ry="17.5"></ellipse>
    </g>
</svg>