<?xml version="1.0" encoding="UTF-8"?>
<svg width="967px" height="936px" viewBox="0 0 967 936" version="1.1" 
    xmlns="http://www.w3.org/2000/svg" 
    xmlns:xlink="http://www.w3.org/1999/xlink">
    <!-- Generator: Sketch 63 (92445) - https://sketch.com -->
    <title>Group</title>
    <desc>Created with Sketch.</desc>
    <g id="Page-1" stroke="none" stroke-width="1" fill="none" fill-rule="evenodd">
        <g id="Group" transform="translate(0.000000, 0.125000)">
            <path d="M77.921875,841.578125 L483.125,841.578125 L483.125,810.402344 L77.921875,810.402344 C52.101562,810.402344 31.167969,789.46875 31.167969,763.648438 L31.167969,77.921875 C31.167969,52.09375 52.101562,31.167969 77.921875,31.167969 L763.648438,31.167969 C789.480469,31.167969 810.402344,52.09375 810.402344,77.921875 L810.402344,436.367188 L841.578125,436.367188 L841.578125,77.921875 C841.527344,34.90625 806.667969,0.050781 763.648438,0 L77.921875,0 C34.914062,0.050781 0.0546875,34.90625 0,77.921875 L0,763.648438 C0.0546875,806.664062 34.914062,841.519531 77.921875,841.578125 Z" id="Path" fill="#2D3748" fill-rule="nonzero"></path>
            <polygon id="Path" fill="#2D3748" fill-rule="nonzero" points="62.34375 124.675781 779.234375 124.675781 779.234375 138.675781 62.34375 138.675781"></polygon>
            <polygon id="Path" fill="#718096" fill-rule="nonzero" points="96 201.875 717 201.875 717 232.875 96 232.875"></polygon>
            <polygon id="Path" fill="#F4AB45" fill-rule="nonzero" points="265.058594 264.390625 374.148438 264.390625 374.148438 295.390625 265.058594 295.390625"></polygon>
            <polygon id="Path" fill="#00BFB3" fill-rule="nonzero" points="405.058594 264.390625 623.238281 264.390625 623.238281 295.390625 405.058594 295.390625"></polygon>
            <polygon id="Path" fill="#718096" fill-rule="nonzero" points="99.058594 388.390625 363.992188 388.390625 363.992188 419.390625 99.058594 419.390625"></polygon>
            <polygon id="Path" fill="#00BFB3" fill-rule="nonzero" points="99.058594 450.734375 208.148438 450.734375 208.148438 481.734375 99.058594 481.734375"></polygon>
            <polygon id="Path" fill="#F4AB45" fill-rule="nonzero" points="239.320313 450.734375 363.992188 450.734375 363.992188 481.734375 239.320313 481.734375"></polygon>
            <polygon id="Path" fill="#BF69A6" fill-rule="nonzero" points="395.164063 388.390625 457.5 388.390625 457.5 419.390625 395.164063 419.390625"></polygon>
            <polygon id="Path-Copy" fill="#BF69A6" fill-rule="nonzero" points="99.058594 264.390625 234.058594 264.390625 234.058594 295.390625 99.058594 295.390625"></polygon>
            <polygon id="Path" fill="#718096" fill-rule="nonzero" points="99.058594 575.410156 444.058594 575.410156 444.058594 606.410156 99.058594 606.410156"></polygon>
            <polygon id="Path" fill="#00BFB3" fill-rule="nonzero" points="99.058594 637.749999 208.148438 637.749999 208.148438 668.749999 99.058594 668.749999"></polygon>
            <polygon id="Path" fill="#BF69A6" fill-rule="nonzero" points="239.058594 637.390625 301.394531 637.390625 301.394531 668.390625 239.058594 668.390625"></polygon>
            <polygon id="Path-Copy-2" fill="#7F9CF5" fill-rule="nonzero" points="332.058594 637.390625 444.058594 637.390625 444.058594 668.390625 332.058594 668.390625"></polygon>
            <polygon id="Path-Copy-3" fill="#7F9CF5" fill-rule="nonzero" points="395 451.875 507 451.875 507 482.875 395 482.875"></polygon>
            <path d="M732.484375,935.085938 C861.597656,935.085938 966.25,830.414062 966.25,701.3125 C966.25,572.199219 861.597656,467.539062 732.484375,467.539062 C603.371094,467.539062 498.710938,572.199219 498.710938,701.3125 C498.863281,830.355469 603.433594,934.929688 732.484375,935.085938 Z M732.484375,498.710938 C844.371094,498.710938 935.085938,589.417969 935.085938,701.3125 C935.085938,813.207031 844.371094,903.910156 732.484375,903.910156 C620.585938,903.910156 529.875,813.207031 529.875,701.3125 C530.007812,589.472656 620.636719,498.835938 732.484375,498.710938 Z" id="Shape" fill="#68D391" fill-rule="nonzero"></path>
            <path d="M637.417969,709.925781 L609.519531,723.855469 L640.691406,786.195312 C642.925781,790.679688 647.191406,793.816406 652.140625,794.617188 C652.945312,794.742188 653.75,794.808594 654.558594,794.820312 C658.6875,794.820312 662.652344,793.175781 665.582031,790.253906 L852.589844,603.238281 L830.558594,581.199219 L658.824219,752.925781 L637.417969,709.925781 Z" id="Path" fill="#68D391" fill-rule="nonzero"></path>
            <ellipse id="Oval" fill="#2D3748" cx="209" cy="73.875" rx="17" ry="18"></ellipse>
            <ellipse id="Oval-Copy" fill="#2D3748" cx="79" cy="75.875" rx="17" ry="18"></ellipse>
            <ellipse id="Oval-Copy-2" fill="#2D3748" cx="144" cy="73.875" rx="17" ry="18"></ellipse>
        </g>
    </g>
</svg>