<?xml version="1.0" encoding="UTF-8"?><svg width="842" height="842"><g fill="none" fill-rule="evenodd"><path d="M78 842h405v-31H78c-26 0-47-21-47-47V78c0-26 21-47 47-47h686c25 0 46 21 46 47v358h32V78c0-43-35-78-78-78H78C35 0 0 35 0 78v686c0 43 35 78 78 78z" fill="#2D3748" fill-rule="nonzero"/><path fill="#2D3748" fill-rule="nonzero" d="M62 125h717v14H62z"/><path fill="#718096" fill-rule="nonzero" d="M96 202h621v31H96z"/><path fill="#F4AB45" fill-rule="nonzero" d="M265 265h109v31H265z"/><path fill="#00BFB3" fill-rule="nonzero" d="M405 265h218v31H405z"/><path fill="#718096" fill-rule="nonzero" d="M99 389h265v31H99z"/><path fill="#00BFB3" fill-rule="nonzero" d="M99 451h109v31H99z"/><path fill="#F4AB45" fill-rule="nonzero" d="M239 451h125v31H239z"/><path fill="#BF69A6" fill-rule="nonzero" d="M395 389h63v31h-63zM99 265h135v31H99z"/><path fill="#718096" fill-rule="nonzero" d="M99 576h345v31H99z"/><path fill="#00BFB3" fill-rule="nonzero" d="M99 638h109v31H99z"/><path fill="#BF69A6" fill-rule="nonzero" d="M239 638h62v31h-62z"/><path fill="#7F9CF5" fill-rule="nonzero" d="M332 638h112v31H332zM395 452h112v31H395z"/><path d="M732 935a234 234 0 100-467 234 234 0 000 467zm0-436a203 203 0 110 405 203 203 0 010-405z" fill="#68D391" fill-rule="nonzero"/><path d="M637 710l-27 14 31 62a16 16 0 0025 4l187-187-22-22-172 172-22-43z" fill="#68D391" fill-rule="nonzero"/><ellipse fill="#2D3748" cx="209" cy="74" rx="17" ry="18"/><ellipse fill="#2D3748" cx="79" cy="76" rx="17" ry="18"/><ellipse fill="#2D3748" cx="144" cy="74" rx="17" ry="18"/></g></svg>